<?xml version="1.0" standalone="no"?>
<!DOCTYPE svg PUBLIC "-//W3C//DTD SVG 20010904//EN"
 "http://www.w3.org/TR/2001/REC-SVG-20010904/DTD/svg10.dtd">
<svg version="1.0" xmlns="http://www.w3.org/2000/svg"
 width="389.000000pt" height="389.000000pt" viewBox="0 0 389.000000 389.000000"
 preserveAspectRatio="xMidYMid meet">
<metadata>
Created by potrace 1.14, written by Peter Selinger 2001-2017
</metadata>
<g transform="translate(0.000000,389.000000) scale(0.100000,-0.100000)"
fill="#000000" stroke="none">
<path d="M2544 2449 c-4 -7 -7 -78 -5 -111 1 -14 12 -16 64 -15 l62 2 0 65 0
65 -58 0 c-32 1 -60 -2 -63 -6z"/>
<path d="M3510 2414 l0 -41 50 -7 50 -7 0 -394 0 -395 -27 0 c-60 0 -73 -9
-73 -51 l0 -39 163 0 164 0 0 40 c0 22 -3 40 -6 41 -37 4 -64 9 -79 13 -16 5
-17 34 -17 437 0 237 -2 434 -5 438 -3 4 -53 7 -112 7 l-108 0 0 -42z"/>
<path d="M50 2391 c0 -40 1 -41 40 -47 37 -6 40 -9 40 -39 0 -19 5 -35 11 -37
10 -3 13 -177 9 -615 0 -40 -2 -43 -27 -43 -60 0 -73 -9 -73 -51 0 -39 0 -39
40 -39 l40 0 0 -41 0 -41 233 4 232 3 67 33 c140 69 217 204 223 391 3 101
-16 205 -51 272 -36 72 -189 221 -260 255 -58 28 -61 28 -291 32 l-233 4 0
-41z m522 -151 c68 -19 111 -123 110 -266 0 -230 -125 -371 -312 -355 -13 1
-15 43 -15 314 -1 171 2 314 6 317 12 9 169 1 211 -10z"/>
<path d="M1205 2169 c-50 -6 -123 -36 -158 -63 -18 -14 -18 -16 4 -54 l23 -39
55 29 c94 47 195 43 255 -10 27 -24 66 -111 66 -149 l0 -31 -172 -1 c-95 0
-194 0 -220 0 l-48 -1 0 -67 c0 -37 8 -94 17 -127 31 -112 134 -186 258 -186
121 0 239 99 278 235 18 63 14 204 -8 265 -53 148 -181 221 -350 199z m238
-419 c10 -11 -24 -98 -50 -126 -37 -41 -64 -54 -110 -54 -52 0 -103 29 -125
72 -18 34 -31 95 -23 108 4 7 302 7 308 0z"/>
<path d="M3052 2151 c-68 -26 -127 -83 -163 -159 -30 -62 -33 -74 -32 -172 0
-119 20 -187 74 -253 34 -42 104 -81 165 -93 97 -19 219 6 287 60 18 14 18 16
-4 54 l-23 39 -55 -29 c-93 -46 -196 -43 -254 10 -29 25 -57 86 -64 137 l-6
45 222 0 222 0 -2 73 c-3 102 -24 169 -71 221 -67 77 -196 106 -296 67z m181
-107 c31 -23 53 -65 60 -116 6 -45 11 -44 -163 -43 -132 0 -135 1 -138 23 -5
35 36 110 77 138 30 21 45 25 87 21 29 -2 62 -12 77 -23z"/>
<path d="M1813 1873 c-61 -159 -118 -291 -125 -295 -7 -4 -25 -9 -40 -12 -26
-6 -28 -16 -19 -77 1 -3 64 -5 141 -5 l140 -1 0 38 c0 40 -9 47 -68 52 -27 2
-29 -9 28 147 23 63 55 154 72 202 18 49 34 86 37 83 2 -3 10 -20 16 -38 11
-29 81 -209 133 -343 l20 -50 -36 -2 c-48 -4 -52 -8 -52 -50 l0 -38 142 1 141
0 2 32 c1 32 -7 55 -19 54 -50 -7 -46 -12 -171 294 l-120 295 -55 0 -55 0
-112 -287z"/>
<path d="M2444 2145 c-3 -7 -4 -26 -2 -41 3 -25 8 -29 47 -36 24 -4 46 -10 49
-13 4 -4 7 -426 3 -470 -1 -6 -11 -12 -23 -13 -13 -1 -32 -4 -43 -6 -11 -3
-23 -5 -27 -5 -5 -1 -8 -19 -8 -41 l0 -40 165 0 165 0 0 40 c0 22 -1 40 -2 41
-2 0 -23 3 -48 6 -25 3 -47 7 -49 9 -2 2 -4 133 -4 292 l-1 288 -108 1 c-81 1
-111 -3 -114 -12z"/>
</g>
</svg>
